STARTFONT 2.1
FONT -epd-noto-jp-regular-r-normal--12-120-75-75-p-100-iso10646-1
SIZE 12 75 75
FONTBOUNDINGBOX 14 16 -1 -3
STARTPROPERTIES 2
FONT_ASCENT 14
FONT_DESCENT 3
ENDPROPERTIES
CHARS 13
STARTCHAR epd-0041
ENCODING 65
SWIDTH 560 0
DWIDTH 7 0
BBX 7 9 0 0
BITMAP
18
38
28
2C
64
7C
46
C6
82
ENDCHAR
STARTCHAR epd-0067
ENCODING 103
SWIDTH 560 0
DWIDTH 7 0
BBX 6 10 1 -3
BITMAP
7C
D8
88
D8
F0
80
F8
84
8C
F8
ENDCHAR
STARTCHAR epd-4ECF
ENCODING 20175
SWIDTH 960 0
DWIDTH 12 0
BBX 12 11 0 -1
BITMAP
1100
1300
2300
6200
E200
A240
2440
2460
2420
2FE0
2030
ENDCHAR
STARTCHAR epd-5148
ENCODING 20808
SWIDTH 960 0
DWIDTH 12 0
BBX 11 11 1 -1
BITMAP
2400
2400
7FC0
4400
0400
FFC0
1300
1300
3320
2320
C1E0
ENDCHAR
STARTCHAR epd-52DD
ENCODING 21213
SWIDTH 960 0
DWIDTH 12 0
BBX 12 11 0 -1
BITMAP
7D60
5540
5FE0
72C0
5FF0
5460
7D30
5FE0
D360
D240
BCC0
ENDCHAR
STARTCHAR epd-53CB
ENCODING 21451
SWIDTH 960 0
DWIDTH 12 0
BBX 10 11 1 -1
BITMAP
1000
1000
FFC0
1000
3F80
3180
2900
4E00
C600
99C0
2040
ENDCHAR
STARTCHAR epd-53E3
ENCODING 21475
SWIDTH 960 0
DWIDTH 12 0
BBX 10 10 1 -1
BITMAP
7FC0
C040
C040
C040
C040
C040
C040
C040
FFC0
C040
ENDCHAR
STARTCHAR epd-5927
ENCODING 22823
SWIDTH 960 0
DWIDTH 12 0
BBX 11 11 1 -1
BITMAP
0400
0400
0400
FFE0
0C00
0E00
1A00
1300
3180
E0C0
8000
ENDCHAR
STARTCHAR epd-5B89
ENCODING 23433
SWIDTH 960 0
DWIDTH 12 0
BBX 11 11 1 -1
BITMAP
0400
FFC0
8040
8840
FFE0
1100
2100
7A00
0F00
79C0
4000
ENDCHAR
STARTCHAR epd-5F15
ENCODING 24341
SWIDTH 960 0
DWIDTH 12 0
BBX 9 11 1 -1
BITMAP
F880
0880
0880
F880
8080
8080
F880
0880
0880
1880
7080
ENDCHAR
STARTCHAR epd-6EC5
ENCODING 28357
SWIDTH 960 0
DWIDTH 12 0
BBX 12 11 0 -1
BITMAP
40E0
20A0
1FE0
9F80
7FA0
1AA0
1FC0
3AC0
57D0
55D0
2120
ENDCHAR
STARTCHAR epd-8CA0
ENCODING 36000
SWIDTH 960 0
DWIDTH 12 0
BBX 10 11 1 -1
BITMAP
3000
3E00
EE00
C480
7F80
4080
7F80
4080
7F80
3100
C0C0
ENDCHAR
STARTCHAR epd-8D64
ENCODING 36196
SWIDTH 960 0
DWIDTH 12 0
BBX 11 11 0 -1
BITMAP
0400
3FC0
0400
0600
FFE0
0900
2940
4920
D920
1100
2700
ENDCHAR
ENDFONT
