STARTFONT 2.1
FONT -epd-noto-jp-regular-r-normal--13-130-75-75-p-100-iso10646-1
SIZE 13 75 75
FONTBOUNDINGBOX 15 17 -1 -3
STARTPROPERTIES 2
FONT_ASCENT 15
FONT_DESCENT 3
ENDPROPERTIES
CHARS 13
STARTCHAR epd-0041
ENCODING 65
SWIDTH 640 0
DWIDTH 8 0
BBX 8 9 0 0
BITMAP
18
18
3C
24
24
7E
42
C2
C3
ENDCHAR
STARTCHAR epd-0067
ENCODING 103
SWIDTH 640 0
DWIDTH 8 0
BBX 6 10 1 -3
BITMAP
7C
D8
88
D8
F0
80
FC
8C
8C
F8
ENDCHAR
STARTCHAR epd-4ECF
ENCODING 20175
SWIDTH 1040 0
DWIDTH 13 0
BBX 12 12 0 -1
BITMAP
1100
1100
3100
6300
6200
A200
2240
2620
2420
2430
3FF0
2010
ENDCHAR
STARTCHAR epd-5148
ENCODING 20808
SWIDTH 1040 0
DWIDTH 13 0
BBX 11 12 1 -1
BITMAP
2400
2400
7FC0
4400
4400
FFE0
FFE0
1100
1100
3120
6120
C1E0
ENDCHAR
STARTCHAR epd-52DD
ENCODING 21213
SWIDTH 1040 0
DWIDTH 13 0
BBX 12 11 0 -1
BITMAP
7AA0
5FF0
7940
5FF0
5A20
7C90
5FF0
5920
D920
DB20
B4E0
ENDCHAR
STARTCHAR epd-53CB
ENCODING 21451
SWIDTH 1040 0
DWIDTH 13 0
BBX 11 12 1 -1
BITMAP
1000
1000
FFE0
1000
1000
3FC0
3880
2980
6500
4700
8F80
B060
ENDCHAR
STARTCHAR epd-53E3
ENCODING 21475
SWIDTH 1040 0
DWIDTH 13 0
BBX 10 11 1 -1
BITMAP
FFC0
C040
C040
C040
C040
C040
C040
C040
C040
FFC0
C040
ENDCHAR
STARTCHAR epd-5927
ENCODING 22823
SWIDTH 1040 0
DWIDTH 13 0
BBX 11 12 1 -1
BITMAP
0400
0400
0400
0400
FFE0
0E00
0E00
0B00
1100
3180
60C0
C060
ENDCHAR
STARTCHAR epd-5B89
ENCODING 23433
SWIDTH 1040 0
DWIDTH 13 0
BBX 12 12 1 -1
BITMAP
0400
FFE0
C020
8C20
0800
FFF0
1080
3180
3900
0F00
1DC0
F060
ENDCHAR
STARTCHAR epd-5F15
ENCODING 24341
SWIDTH 1040 0
DWIDTH 13 0
BBX 10 12 2 -1
BITMAP
0040
F840
0840
0840
F840
8040
F840
0840
0840
0840
1840
7040
ENDCHAR
STARTCHAR epd-6EC5
ENCODING 28357
SWIDTH 1040 0
DWIDTH 13 0
BBX 13 12 0 -1
BITMAP
4070
2050
0FF8
0F40
CF50
2A50
0EF0
3F60
7A60
5BE8
55A8
1110
ENDCHAR
STARTCHAR epd-8CA0
ENCODING 36000
SWIDTH 1040 0
DWIDTH 13 0
BBX 11 12 1 -1
BITMAP
3000
3F00
4600
FFC0
4040
7FC0
4040
7FC0
4040
7FC0
3180
C060
ENDCHAR
STARTCHAR epd-8D64
ENCODING 36196
SWIDTH 1040 0
DWIDTH 13 0
BBX 12 12 1 -1
BITMAP
0400
0400
7FC0
0400
FFE0
FFF0
0900
4940
5920
9130
3100
6700
ENDCHAR
ENDFONT
