STARTFONT 2.1
FONT -epd-noto-jp-medium-r-normal--10-100-75-75-p-100-iso10646-1
SIZE 10 75 75
FONTBOUNDINGBOX 12 14 -1 -3
STARTPROPERTIES 2
FONT_ASCENT 12
FONT_DESCENT 3
ENDPROPERTIES
CHARS 57
STARTCHAR epd-0041
ENCODING 65
SWIDTH 480 0
DWIDTH 6 0
BBX 6 8 0 0
BITMAP
30
30
38
68
48
7C
CC
84
ENDCHAR
STARTCHAR epd-0067
ENCODING 103
SWIDTH 560 0
DWIDTH 7 0
BBX 5 8 1 -2
BITMAP
F8
B0
90
60
80
F8
98
F0
ENDCHAR
STARTCHAR epd-3053
ENCODING 12371
SWIDTH 640 0
DWIDTH 8 0
BBX 7 7 2 0
BITMAP
7C
00
00
00
80
C0
7E
ENDCHAR
STARTCHAR epd-3069
ENCODING 12393
SWIDTH 640 0
DWIDTH 8 0
BBX 8 8 2 0
BITMAP
C3
44
78
60
C0
80
C0
7C
ENDCHAR
STARTCHAR epd-306E
ENCODING 12398
SWIDTH 560 0
DWIDTH 7 0
BBX 8 8 1 -1
BITMAP
3E
5B
D1
91
91
F3
66
0C
ENDCHAR
STARTCHAR epd-307F
ENCODING 12415
SWIDTH 640 0
DWIDTH 8 0
BBX 9 8 1 -1
BITMAP
3C00
0800
3D00
5700
9380
A200
E600
0C00
ENDCHAR
STARTCHAR epd-3082
ENCODING 12418
SWIDTH 640 0
DWIDTH 8 0
BBX 8 9 1 -1
BITMAP
30
20
F8
20
FB
21
21
23
1E
ENDCHAR
STARTCHAR epd-308A
ENCODING 12426
SWIDTH 640 0
DWIDTH 8 0
BBX 6 8 2 0
BITMAP
B8
EC
C4
84
84
0C
18
70
ENDCHAR
STARTCHAR epd-308B
ENCODING 12427
SWIDTH 640 0
DWIDTH 8 0
BBX 7 9 2 -1
BITMAP
FC
18
30
7C
C6
32
5A
4E
38
ENDCHAR
STARTCHAR epd-308C
ENCODING 12428
SWIDTH 640 0
DWIDTH 8 0
BBX 9 8 1 0
BITMAP
2000
EE00
F200
6200
6200
E200
E280
6380
ENDCHAR
STARTCHAR epd-308F
ENCODING 12431
SWIDTH 640 0
DWIDTH 8 0
BBX 9 8 0 0
BITMAP
1000
3000
7F00
3980
3080
7080
F180
3600
ENDCHAR
STARTCHAR epd-30B9
ENCODING 12473
SWIDTH 640 0
DWIDTH 8 0
BBX 8 7 1 0
BITMAP
7E
06
04
0C
1C
36
C3
ENDCHAR
STARTCHAR epd-30C4
ENCODING 12484
SWIDTH 640 0
DWIDTH 8 0
BBX 8 8 1 0
BITMAP
10
91
DB
42
02
04
18
30
ENDCHAR
STARTCHAR epd-30DD
ENCODING 12509
SWIDTH 640 0
DWIDTH 8 0
BBX 9 8 0 0
BITMAP
0B80
0980
FF80
0800
6B00
4900
8800
3800
ENDCHAR
STARTCHAR epd-30FC
ENCODING 12540
SWIDTH 640 0
DWIDTH 8 0
BBX 8 1 1 3
BITMAP
FF
ENDCHAR
STARTCHAR epd-4EBA
ENCODING 20154
SWIDTH 640 0
DWIDTH 8 0
BBX 9 9 0 -1
BITMAP
0800
0800
0800
1C00
1400
1600
2200
6180
C080
ENDCHAR
STARTCHAR epd-4F11
ENCODING 20241
SWIDTH 640 0
DWIDTH 8 0
BBX 9 9 1 -1
BITMAP
2400
4400
FF80
CE00
4E00
5500
7580
6480
4400
ENDCHAR
STARTCHAR epd-4F4D
ENCODING 20301
SWIDTH 560 0
DWIDTH 7 0
BBX 9 9 1 -1
BITMAP
6400
7F80
C100
D100
4B00
4A00
4A00
7F80
4000
ENDCHAR
STARTCHAR epd-4F53
ENCODING 20307
SWIDTH 640 0
DWIDTH 8 0
BBX 9 9 0 -1
BITMAP
6400
7F80
CE00
CE00
5500
5500
7F80
4400
4400
ENDCHAR
STARTCHAR epd-5100
ENCODING 20736
SWIDTH 560 0
DWIDTH 7 0
BBX 10 10 0 -1
BITMAP
2900
3F80
4F80
DFC0
CF80
5A80
5FC0
4F80
4B00
5BC0
ENDCHAR
STARTCHAR epd-5143
ENCODING 20803
SWIDTH 640 0
DWIDTH 8 0
BBX 10 9 0 -1
BITMAP
3F80
0000
7F80
FFC0
1200
1200
1200
2240
4380
ENDCHAR
STARTCHAR epd-5206
ENCODING 20998
SWIDTH 640 0
DWIDTH 8 0
BBX 10 10 0 -1
BITMAP
0200
3300
2100
4080
FFC0
1900
1100
1100
2100
4700
ENDCHAR
STARTCHAR epd-52B4
ENCODING 21172
SWIDTH 640 0
DWIDTH 8 0
BBX 9 9 1 -1
BITMAP
5300
5200
FF80
9180
FF00
1300
2300
6200
CE00
ENDCHAR
STARTCHAR epd-52E4
ENCODING 21220
SWIDTH 640 0
DWIDTH 8 0
BBX 10 9 0 -1
BITMAP
FD00
2900
7BC0
7940
7940
3100
7A00
3E80
7580
ENDCHAR
STARTCHAR epd-5316
ENCODING 21270
SWIDTH 640 0
DWIDTH 8 0
BBX 9 9 1 -1
BITMAP
2800
6800
C900
CE00
4800
4800
4880
4880
4F80
ENDCHAR
STARTCHAR epd-5373
ENCODING 21363
SWIDTH 560 0
DWIDTH 7 0
BBX 9 9 0 -1
BITMAP
7F80
4E80
7E80
4E80
7E80
5280
5B80
EE00
0200
ENDCHAR
STARTCHAR epd-548C
ENCODING 21644
SWIDTH 640 0
DWIDTH 8 0
BBX 9 10 0 -1
BITMAP
1000
E780
2480
FC80
2480
7480
7C80
A480
A780
2480
ENDCHAR
STARTCHAR epd-56FD
ENCODING 22269
SWIDTH 640 0
DWIDTH 8 0
BBX 8 9 1 -1
BITMAP
FF
81
FD
91
FD
95
FD
FF
81
ENDCHAR
STARTCHAR epd-5929
ENCODING 22825
SWIDTH 640 0
DWIDTH 8 0
BBX 9 8 0 0
BITMAP
FF80
0800
0800
FF80
0C00
1C00
3600
E380
ENDCHAR
STARTCHAR epd-5C71
ENCODING 23665
SWIDTH 640 0
DWIDTH 8 0
BBX 8 9 1 -1
BITMAP
10
10
91
91
91
91
91
FF
81
ENDCHAR
STARTCHAR epd-5EFA
ENCODING 24314
SWIDTH 640 0
DWIDTH 8 0
BBX 10 9 0 -1
BITMAP
EF80
7FC0
6280
FF80
2F80
6200
7FC0
7200
DFC0
ENDCHAR
STARTCHAR epd-5FF5
ENCODING 24565
SWIDTH 640 0
DWIDTH 8 0
BBX 9 9 1 -1
BITMAP
1800
6600
B980
7E00
0600
1C00
A900
A580
3C80
ENDCHAR
STARTCHAR epd-611F
ENCODING 24863
SWIDTH 640 0
DWIDTH 8 0
BBX 10 9 0 -1
BITMAP
7F80
4400
4700
7B00
FF40
8D80
1D00
5280
9E80
ENDCHAR
STARTCHAR epd-61B2
ENCODING 25010
SWIDTH 640 0
DWIDTH 8 0
BBX 9 9 1 -1
BITMAP
FF80
FE80
7E00
FF00
7F00
7F00
1800
A300
BC00
ENDCHAR
STARTCHAR epd-6210
ENCODING 25104
SWIDTH 640 0
DWIDTH 8 0
BBX 9 9 0 -1
BITMAP
0500
7F80
4400
7D00
5F00
5F00
F680
CE80
8980
ENDCHAR
STARTCHAR epd-632F
ENCODING 25391
SWIDTH 640 0
DWIDTH 8 0
BBX 9 9 1 -1
BITMAP
5F80
5800
FF80
5F00
FF80
DD00
5500
5700
EE00
ENDCHAR
STARTCHAR epd-656C
ENCODING 25964
SWIDTH 640 0
DWIDTH 8 0
BBX 10 9 0 -1
BITMAP
7A00
33C0
7E80
4E80
EB80
4B00
7B00
5F80
1CC0
ENDCHAR
STARTCHAR epd-6587
ENCODING 25991
SWIDTH 640 0
DWIDTH 8 0
BBX 9 9 1 -1
BITMAP
0800
FF80
6300
2200
3600
1C00
1C00
7700
C180
ENDCHAR
STARTCHAR epd-65E5
ENCODING 26085
SWIDTH 640 0
DWIDTH 8 0
BBX 8 9 1 -1
BITMAP
FF
C3
C3
C3
FF
C3
C3
FF
C3
ENDCHAR
STARTCHAR epd-6625
ENCODING 26149
SWIDTH 640 0
DWIDTH 8 0
BBX 9 9 1 -1
BITMAP
FF00
1000
7F00
FF80
6600
E780
7E00
4200
7E00
ENDCHAR
STARTCHAR epd-662D
ENCODING 26157
SWIDTH 640 0
DWIDTH 8 0
BBX 9 9 0 -1
BITMAP
7F80
D280
D480
FD80
D800
DF80
FC80
4F80
0C80
ENDCHAR
STARTCHAR epd-66FF
ENCODING 26367
SWIDTH 640 0
DWIDTH 8 0
BBX 9 9 1 -1
BITMAP
6200
6200
FF80
6500
FC80
4200
7E00
4000
7E00
ENDCHAR
STARTCHAR epd-6B63
ENCODING 27491
SWIDTH 560 0
DWIDTH 7 0
BBX 9 9 1 -1
BITMAP
FF80
0800
0800
4800
4F00
4800
4800
FF80
FF00
ENDCHAR
STARTCHAR epd-6BBF
ENCODING 27583
SWIDTH 560 0
DWIDTH 7 0
BBX 10 9 0 -1
BITMAP
FF80
CF80
FFC0
ECC0
FF80
FE80
EB80
EF80
64C0
ENDCHAR
STARTCHAR epd-6C11
ENCODING 27665
SWIDTH 640 0
DWIDTH 8 0
BBX 9 9 1 -1
BITMAP
FF00
C100
FF00
C800
FF80
CC00
C400
FE80
C380
ENDCHAR
STARTCHAR epd-6CD5
ENCODING 27861
SWIDTH 640 0
DWIDTH 8 0
BBX 9 8 1 0
BITMAP
C400
1F00
8400
7F80
0800
4800
5100
BF80
ENDCHAR
STARTCHAR epd-6D77
ENCODING 28023
SWIDTH 640 0
DWIDTH 8 0
BBX 10 10 0 -1
BITMAP
4800
2F80
1800
DF80
0A80
1FC0
2A80
5FC0
5F80
4300
ENDCHAR
STARTCHAR epd-751F
ENCODING 29983
SWIDTH 640 0
DWIDTH 8 0
BBX 9 9 1 -1
BITMAP
6800
7F80
C800
0800
7F00
0800
0800
FF80
FF80
ENDCHAR
STARTCHAR epd-7687
ENCODING 30343
SWIDTH 640 0
DWIDTH 8 0
BBX 9 9 1 -1
BITMAP
7F00
4100
7F00
7F00
7F00
7F00
7F00
0800
FF80
ENDCHAR
STARTCHAR epd-793C
ENCODING 31036
SWIDTH 560 0
DWIDTH 7 0
BBX 10 9 0 -1
BITMAP
2400
F400
7400
3400
7400
F400
2440
2440
27C0
ENDCHAR
STARTCHAR epd-79CB
ENCODING 31179
SWIDTH 640 0
DWIDTH 8 0
BBX 10 10 0 -1
BITMAP
1000
6200
2200
FE80
2F80
7300
6300
A300
2480
2840
ENDCHAR
STARTCHAR epd-8001
ENCODING 32769
SWIDTH 640 0
DWIDTH 8 0
BBX 10 9 0 -1
BITMAP
0880
7F80
0B00
FFC0
1C00
3300
DC00
1080
1F80
ENDCHAR
STARTCHAR epd-80B2
ENCODING 32946
SWIDTH 640 0
DWIDTH 8 0
BBX 8 9 1 -1
BITMAP
FF
76
FF
C1
7E
7E
7E
42
46
ENDCHAR
STARTCHAR epd-884C
ENCODING 34892
SWIDTH 640 0
DWIDTH 8 0
BBX 9 9 1 -1
BITMAP
5F00
8000
6000
5F80
C200
4200
4200
4200
4E00
ENDCHAR
STARTCHAR epd-8A18
ENCODING 35352
SWIDTH 640 0
DWIDTH 8 0
BBX 10 9 0 -1
BITMAP
7F80
F080
7080
0780
7480
F400
9440
F440
8780
ENDCHAR
STARTCHAR epd-8A95
ENCODING 35477
SWIDTH 640 0
DWIDTH 8 0
BBX 9 9 0 -1
BITMAP
7B80
E900
1B00
1F80
6700
7F00
3F80
7800
1780
ENDCHAR
STARTCHAR epd-8B1D
ENCODING 35613
SWIDTH 640 0
DWIDTH 8 0
BBX 9 9 0 -1
BITMAP
6C80
F480
7F80
1E80
7780
7D80
3C80
7480
0D80
ENDCHAR
ENDFONT
