STARTFONT 2.1
FONT -epd-noto-jp-medium-r-normal--11-110-75-75-p-100-iso10646-1
SIZE 11 75 75
FONTBOUNDINGBOX 13 15 -1 -3
STARTPROPERTIES 2
FONT_ASCENT 13
FONT_DESCENT 3
ENDPROPERTIES
CHARS 262
STARTCHAR epd-0020
ENCODING 32
SWIDTH 160 0
DWIDTH 2 0
BBX 1 1 0 0
BITMAP
00
ENDCHAR
STARTCHAR epd-0021
ENCODING 33
SWIDTH 240 0
DWIDTH 3 0
BBX 1 8 1 0
BITMAP
80
80
80
80
80
80
80
80
ENDCHAR
STARTCHAR epd-0022
ENCODING 34
SWIDTH 400 0
DWIDTH 5 0
BBX 3 3 1 5
BITMAP
A0
A0
A0
ENDCHAR
STARTCHAR epd-0023
ENCODING 35
SWIDTH 480 0
DWIDTH 6 0
BBX 6 8 0 0
BITMAP
28
28
7C
28
48
FC
48
50
ENDCHAR
STARTCHAR epd-0024
ENCODING 36
SWIDTH 480 0
DWIDTH 6 0
BBX 4 10 1 -1
BITMAP
20
E0
80
80
E0
30
10
90
E0
20
ENDCHAR
STARTCHAR epd-0025
ENCODING 37
SWIDTH 880 0
DWIDTH 11 0
BBX 9 8 1 0
BITMAP
6000
B000
9400
9100
EA80
0280
1380
2300
ENDCHAR
STARTCHAR epd-0026
ENCODING 38
SWIDTH 720 0
DWIDTH 9 0
BBX 7 8 1 0
BITMAP
78
48
58
70
F2
9E
CC
7A
ENDCHAR
STARTCHAR epd-0027
ENCODING 39
SWIDTH 240 0
DWIDTH 3 0
BBX 1 3 1 5
BITMAP
80
80
80
ENDCHAR
STARTCHAR epd-0028
ENCODING 40
SWIDTH 320 0
DWIDTH 4 0
BBX 2 11 1 -2
BITMAP
40
40
C0
80
80
80
80
80
C0
40
40
ENDCHAR
STARTCHAR epd-0029
ENCODING 41
SWIDTH 320 0
DWIDTH 4 0
BBX 2 10 1 -2
BITMAP
80
C0
C0
40
40
40
40
C0
80
80
ENDCHAR
STARTCHAR epd-002A
ENCODING 42
SWIDTH 400 0
DWIDTH 5 0
BBX 4 4 1 4
BITMAP
40
F0
60
A0
ENDCHAR
STARTCHAR epd-002B
ENCODING 43
SWIDTH 560 0
DWIDTH 7 0
BBX 5 6 1 1
BITMAP
20
20
20
F8
20
20
ENDCHAR
STARTCHAR epd-002C
ENCODING 44
SWIDTH 320 0
DWIDTH 4 0
BBX 2 3 1 -2
BITMAP
C0
40
80
ENDCHAR
STARTCHAR epd-002D
ENCODING 45
SWIDTH 320 0
DWIDTH 4 0
BBX 3 1 0 3
BITMAP
E0
ENDCHAR
STARTCHAR epd-002E
ENCODING 46
SWIDTH 240 0
DWIDTH 3 0
BBX 1 2 1 0
BITMAP
80
80
ENDCHAR
STARTCHAR epd-002F
ENCODING 47
SWIDTH 320 0
DWIDTH 4 0
BBX 4 10 0 -2
BITMAP
10
10
20
20
20
20
40
40
40
80
ENDCHAR
STARTCHAR epd-0030
ENCODING 48
SWIDTH 480 0
DWIDTH 6 0
BBX 5 8 1 0
BITMAP
70
D8
88
88
88
88
D8
70
ENDCHAR
STARTCHAR epd-0031
ENCODING 49
SWIDTH 480 0
DWIDTH 6 0
BBX 5 8 1 0
BITMAP
60
60
20
20
20
20
20
F8
ENDCHAR
STARTCHAR epd-0032
ENCODING 50
SWIDTH 480 0
DWIDTH 6 0
BBX 5 8 1 0
BITMAP
70
98
08
18
10
30
60
F8
ENDCHAR
STARTCHAR epd-0033
ENCODING 51
SWIDTH 480 0
DWIDTH 6 0
BBX 5 8 0 0
BITMAP
70
18
18
30
18
08
98
70
ENDCHAR
STARTCHAR epd-0034
ENCODING 52
SWIDTH 480 0
DWIDTH 6 0
BBX 6 8 0 0
BITMAP
18
38
28
68
48
FC
08
08
ENDCHAR
STARTCHAR epd-0035
ENCODING 53
SWIDTH 480 0
DWIDTH 6 0
BBX 5 8 1 0
BITMAP
F0
80
80
F0
18
08
18
F0
ENDCHAR
STARTCHAR epd-0036
ENCODING 54
SWIDTH 480 0
DWIDTH 6 0
BBX 5 8 1 0
BITMAP
70
C0
80
B0
D8
88
D8
70
ENDCHAR
STARTCHAR epd-0037
ENCODING 55
SWIDTH 480 0
DWIDTH 6 0
BBX 5 8 1 0
BITMAP
F8
18
10
30
20
20
20
20
ENDCHAR
STARTCHAR epd-0038
ENCODING 56
SWIDTH 480 0
DWIDTH 6 0
BBX 5 8 1 0
BITMAP
70
98
88
70
F0
88
D8
70
ENDCHAR
STARTCHAR epd-0039
ENCODING 57
SWIDTH 480 0
DWIDTH 6 0
BBX 5 8 1 0
BITMAP
70
D8
88
98
F8
18
18
F0
ENDCHAR
STARTCHAR epd-003A
ENCODING 58
SWIDTH 240 0
DWIDTH 3 0
BBX 1 6 1 0
BITMAP
80
80
00
00
80
80
ENDCHAR
STARTCHAR epd-003B
ENCODING 59
SWIDTH 320 0
DWIDTH 4 0
BBX 2 8 1 -2
BITMAP
C0
C0
00
00
00
C0
40
80
ENDCHAR
STARTCHAR epd-003C
ENCODING 60
SWIDTH 560 0
DWIDTH 7 0
BBX 5 4 1 2
BITMAP
18
E0
E0
18
ENDCHAR
STARTCHAR epd-003D
ENCODING 61
SWIDTH 480 0
DWIDTH 6 0
BBX 6 4 0 2
BITMAP
FC
00
00
FC
ENDCHAR
STARTCHAR epd-003E
ENCODING 62
SWIDTH 560 0
DWIDTH 7 0
BBX 5 4 1 2
BITMAP
E0
18
18
E0
ENDCHAR
STARTCHAR epd-003F
ENCODING 63
SWIDTH 480 0
DWIDTH 6 0
BBX 4 8 1 0
BITMAP
E0
30
30
20
40
00
40
40
ENDCHAR
STARTCHAR epd-0040
ENCODING 64
SWIDTH 880 0
DWIDTH 11 0
BBX 9 10 1 -2
BITMAP
1E00
6300
4180
DC80
B480
A480
A580
F700
6000
3C00
ENDCHAR
STARTCHAR epd-0041
ENCODING 65
SWIDTH 560 0
DWIDTH 7 0
BBX 7 8 0 0
BITMAP
30
38
28
68
4C
7C
C4
C6
ENDCHAR
STARTCHAR epd-0042
ENCODING 66
SWIDTH 640 0
DWIDTH 8 0
BBX 6 8 1 0
BITMAP
F0
98
98
F8
8C
84
8C
F8
ENDCHAR
STARTCHAR epd-0043
ENCODING 67
SWIDTH 560 0
DWIDTH 7 0
BBX 6 8 1 0
BITMAP
38
C0
80
80
80
80
C4
38
ENDCHAR
STARTCHAR epd-0044
ENCODING 68
SWIDTH 640 0
DWIDTH 8 0
BBX 6 8 1 0
BITMAP
F0
88
8C
84
84
8C
88
F0
ENDCHAR
STARTCHAR epd-0045
ENCODING 69
SWIDTH 480 0
DWIDTH 6 0
BBX 5 8 1 0
BITMAP
F8
80
80
F0
80
80
80
F8
ENDCHAR
STARTCHAR epd-0046
ENCODING 70
SWIDTH 480 0
DWIDTH 6 0
BBX 5 8 1 0
BITMAP
F8
80
80
80
F0
80
80
80
ENDCHAR
STARTCHAR epd-0047
ENCODING 71
SWIDTH 640 0
DWIDTH 8 0
BBX 6 8 1 0
BITMAP
38
40
80
80
9C
84
C4
3C
ENDCHAR
STARTCHAR epd-0048
ENCODING 72
SWIDTH 640 0
DWIDTH 8 0
BBX 6 8 1 0
BITMAP
84
84
84
FC
84
84
84
84
ENDCHAR
STARTCHAR epd-0049
ENCODING 73
SWIDTH 240 0
DWIDTH 3 0
BBX 1 8 1 0
BITMAP
80
80
80
80
80
80
80
80
ENDCHAR
STARTCHAR epd-004A
ENCODING 74
SWIDTH 480 0
DWIDTH 6 0
BBX 4 8 1 0
BITMAP
10
10
10
10
10
10
B0
E0
ENDCHAR
STARTCHAR epd-004B
ENCODING 75
SWIDTH 560 0
DWIDTH 7 0
BBX 6 8 1 0
BITMAP
88
90
B0
E0
F0
98
88
8C
ENDCHAR
STARTCHAR epd-004C
ENCODING 76
SWIDTH 480 0
DWIDTH 6 0
BBX 5 8 1 0
BITMAP
80
80
80
80
80
80
80
F8
ENDCHAR
STARTCHAR epd-004D
ENCODING 77
SWIDTH 720 0
DWIDTH 9 0
BBX 7 8 1 0
BITMAP
C6
C6
CE
EE
AA
BA
92
82
ENDCHAR
STARTCHAR epd-004E
ENCODING 78
SWIDTH 640 0
DWIDTH 8 0
BBX 6 8 1 0
BITMAP
C4
C4
E4
A4
B4
9C
8C
8C
ENDCHAR
STARTCHAR epd-004F
ENCODING 79
SWIDTH 720 0
DWIDTH 9 0
BBX 7 8 1 0
BITMAP
78
C4
86
82
82
86
C4
78
ENDCHAR
STARTCHAR epd-0050
ENCODING 80
SWIDTH 560 0
DWIDTH 7 0
BBX 5 8 1 0
BITMAP
F0
98
88
98
F0
80
80
80
ENDCHAR
STARTCHAR epd-0051
ENCODING 81
SWIDTH 720 0
DWIDTH 9 0
BBX 7 10 1 -2
BITMAP
78
C4
86
82
82
86
C4
78
18
0E
ENDCHAR
STARTCHAR epd-0052
ENCODING 82
SWIDTH 560 0
DWIDTH 7 0
BBX 5 8 1 0
BITMAP
F0
98
88
98
F0
B0
90
88
ENDCHAR
STARTCHAR epd-0053
ENCODING 83
SWIDTH 560 0
DWIDTH 7 0
BBX 5 8 1 0
BITMAP
70
80
80
E0
38
08
98
F0
ENDCHAR
STARTCHAR epd-0054
ENCODING 84
SWIDTH 640 0
DWIDTH 8 0
BBX 6 8 1 0
BITMAP
FC
10
10
10
10
10
10
10
ENDCHAR
STARTCHAR epd-0055
ENCODING 85
SWIDTH 640 0
DWIDTH 8 0
BBX 6 8 1 0
BITMAP
84
84
84
84
84
84
CC
78
ENDCHAR
STARTCHAR epd-0056
ENCODING 86
SWIDTH 560 0
DWIDTH 7 0
BBX 6 8 0 0
BITMAP
C4
C4
4C
4C
68
28
38
30
ENDCHAR
STARTCHAR epd-0057
ENCODING 87
SWIDTH 800 0
DWIDTH 10 0
BBX 10 8 0 0
BITMAP
CCC0
CC80
4C80
5C80
5780
7380
3300
3300
ENDCHAR
STARTCHAR epd-0058
ENCODING 88
SWIDTH 560 0
DWIDTH 7 0
BBX 6 8 0 0
BITMAP
44
68
28
30
30
28
4C
C4
ENDCHAR
STARTCHAR epd-0059
ENCODING 89
SWIDTH 480 0
DWIDTH 6 0
BBX 5 8 1 0
BITMAP
88
98
D0
70
60
20
20
20
ENDCHAR
STARTCHAR epd-005A
ENCODING 90
SWIDTH 640 0
DWIDTH 8 0
BBX 6 8 1 0
BITMAP
7C
0C
18
10
30
60
E0
FC
ENDCHAR
STARTCHAR epd-005B
ENCODING 91
SWIDTH 320 0
DWIDTH 4 0
BBX 3 11 1 -3
BITMAP
E0
80
80
80
80
80
80
80
80
80
C0
ENDCHAR
STARTCHAR epd-005C
ENCODING 92
SWIDTH 320 0
DWIDTH 4 0
BBX 4 10 0 -2
BITMAP
80
40
40
40
40
20
20
20
10
10
ENDCHAR
STARTCHAR epd-005D
ENCODING 93
SWIDTH 320 0
DWIDTH 4 0
BBX 3 11 0 -3
BITMAP
E0
20
20
20
20
20
20
20
20
20
E0
ENDCHAR
STARTCHAR epd-005E
ENCODING 94
SWIDTH 480 0
DWIDTH 6 0
BBX 4 4 1 3
BITMAP
60
70
90
90
ENDCHAR
STARTCHAR epd-005F
ENCODING 95
SWIDTH 480 0
DWIDTH 6 0
BBX 6 1 0 -2
BITMAP
FC
ENDCHAR
STARTCHAR epd-0060
ENCODING 96
SWIDTH 560 0
DWIDTH 7 0
BBX 2 2 2 7
BITMAP
80
40
ENDCHAR
STARTCHAR epd-0061
ENCODING 97
SWIDTH 560 0
DWIDTH 7 0
BBX 5 6 1 0
BITMAP
F0
18
38
C8
98
E8
ENDCHAR
STARTCHAR epd-0062
ENCODING 98
SWIDTH 560 0
DWIDTH 7 0
BBX 5 8 1 0
BITMAP
80
80
F0
98
88
88
98
F0
ENDCHAR
STARTCHAR epd-0063
ENCODING 99
SWIDTH 480 0
DWIDTH 6 0
BBX 4 6 1 0
BITMAP
70
C0
80
80
C0
70
ENDCHAR
STARTCHAR epd-0064
ENCODING 100
SWIDTH 560 0
DWIDTH 7 0
BBX 5 8 1 0
BITMAP
08
08
78
D8
88
88
D8
78
ENDCHAR
STARTCHAR epd-0065
ENCODING 101
SWIDTH 560 0
DWIDTH 7 0
BBX 5 6 1 0
BITMAP
70
98
F8
80
C0
70
ENDCHAR
STARTCHAR epd-0066
ENCODING 102
SWIDTH 240 0
DWIDTH 3 0
BBX 4 8 0 0
BITMAP
70
40
E0
40
40
40
40
40
ENDCHAR
STARTCHAR epd-0067
ENCODING 103
SWIDTH 560 0
DWIDTH 7 0
BBX 5 8 1 -2
BITMAP
78
98
98
70
80
F8
98
F0
ENDCHAR
STARTCHAR epd-0068
ENCODING 104
SWIDTH 560 0
DWIDTH 7 0
BBX 5 8 1 0
BITMAP
80
80
F0
D8
88
88
88
88
ENDCHAR
STARTCHAR epd-0069
ENCODING 105
SWIDTH 240 0
DWIDTH 3 0
BBX 1 8 1 0
BITMAP
80
00
80
80
80
80
80
80
ENDCHAR
STARTCHAR epd-006A
ENCODING 106
SWIDTH 240 0
DWIDTH 3 0
BBX 3 10 -1 -2
BITMAP
20
00
20
20
20
20
20
20
20
E0
ENDCHAR
STARTCHAR epd-006B
ENCODING 107
SWIDTH 480 0
DWIDTH 6 0
BBX 5 8 1 0
BITMAP
80
80
98
B0
E0
F0
90
98
ENDCHAR
STARTCHAR epd-006C
ENCODING 108
SWIDTH 240 0
DWIDTH 3 0
BBX 2 8 1 0
BITMAP
80
80
80
80
80
80
80
C0
ENDCHAR
STARTCHAR epd-006D
ENCODING 109
SWIDTH 880 0
DWIDTH 11 0
BBX 9 6 1 0
BITMAP
F700
DD80
8880
8880
8880
8880
ENDCHAR
STARTCHAR epd-006E
ENCODING 110
SWIDTH 560 0
DWIDTH 7 0
BBX 5 6 1 0
BITMAP
F0
D8
88
88
88
88
ENDCHAR
STARTCHAR epd-006F
ENCODING 111
SWIDTH 560 0
DWIDTH 7 0
BBX 5 6 1 0
BITMAP
70
D8
88
88
D8
70
ENDCHAR
STARTCHAR epd-0070
ENCODING 112
SWIDTH 560 0
DWIDTH 7 0
BBX 5 8 1 -2
BITMAP
F0
98
88
88
98
F0
80
80
ENDCHAR
STARTCHAR epd-0071
ENCODING 113
SWIDTH 560 0
DWIDTH 7 0
BBX 5 8 1 -2
BITMAP
78
D8
88
88
D8
78
08
08
ENDCHAR
STARTCHAR epd-0072
ENCODING 114
SWIDTH 320 0
DWIDTH 4 0
BBX 3 6 1 0
BITMAP
A0
C0
80
80
80
80
ENDCHAR
STARTCHAR epd-0073
ENCODING 115
SWIDTH 480 0
DWIDTH 6 0
BBX 4 6 1 0
BITMAP
F0
80
C0
30
10
E0
ENDCHAR
STARTCHAR epd-0074
ENCODING 116
SWIDTH 320 0
DWIDTH 4 0
BBX 4 8 0 0
BITMAP
40
40
F0
40
40
40
40
70
ENDCHAR
STARTCHAR epd-0075
ENCODING 117
SWIDTH 560 0
DWIDTH 7 0
BBX 5 6 1 0
BITMAP
88
88
88
88
98
E8
ENDCHAR
STARTCHAR epd-0076
ENCODING 118
SWIDTH 480 0
DWIDTH 6 0
BBX 6 6 0 0
BITMAP
CC
48
48
78
30
30
ENDCHAR
STARTCHAR epd-0077
ENCODING 119
SWIDTH 720 0
DWIDTH 9 0
BBX 9 6 0 0
BITMAP
C980
4D80
5D00
5500
7700
3200
ENDCHAR
STARTCHAR epd-0078
ENCODING 120
SWIDTH 480 0
DWIDTH 6 0
BBX 5 6 0 0
BITMAP
48
78
30
30
58
C8
ENDCHAR
STARTCHAR epd-0079
ENCODING 121
SWIDTH 480 0
DWIDTH 6 0
BBX 6 8 0 -2
BITMAP
CC
48
48
38
30
30
20
60
ENDCHAR
STARTCHAR epd-007A
ENCODING 122
SWIDTH 480 0
DWIDTH 6 0
BBX 5 6 1 0
BITMAP
F8
10
20
60
C0
F8
ENDCHAR
STARTCHAR epd-007B
ENCODING 123
SWIDTH 400 0
DWIDTH 5 0
BBX 3 11 1 -3
BITMAP
60
40
40
40
40
C0
40
40
40
40
60
ENDCHAR
STARTCHAR epd-007C
ENCODING 124
SWIDTH 240 0
DWIDTH 3 0
BBX 1 12 1 -3
BITMAP
80
80
80
80
80
80
80
80
80
80
80
80
ENDCHAR
STARTCHAR epd-007D
ENCODING 125
SWIDTH 320 0
DWIDTH 4 0
BBX 3 11 1 -3
BITMAP
C0
40
40
40
40
60
40
40
40
40
C0
ENDCHAR
STARTCHAR epd-007E
ENCODING 126
SWIDTH 480 0
DWIDTH 6 0
BBX 4 2 1 3
BITMAP
C0
30
ENDCHAR
STARTCHAR epd-2103
ENCODING 8451
SWIDTH 880 0
DWIDTH 11 0
BBX 10 8 0 0
BITMAP
F3C0
9600
6400
0400
0400
0400
0640
03C0
ENDCHAR
STARTCHAR epd-3053
ENCODING 12371
SWIDTH 880 0
DWIDTH 11 0
BBX 7 8 2 0
BITMAP
FE
00
00
00
80
80
C0
7E
ENDCHAR
STARTCHAR epd-3069
ENCODING 12393
SWIDTH 880 0
DWIDTH 11 0
BBX 9 9 2 0
BITMAP
8380
C000
4C00
7000
6000
C000
8000
C000
7E00
ENDCHAR
STARTCHAR epd-306E
ENCODING 12398
SWIDTH 880 0
DWIDTH 11 0
BBX 9 8 1 0
BITMAP
3E00
6B00
C980
9880
9080
9180
6300
0600
ENDCHAR
STARTCHAR epd-307F
ENCODING 12415
SWIDTH 880 0
DWIDTH 11 0
BBX 10 9 1 -1
BITMAP
3C00
0400
0880
3E80
5B80
91C0
B100
E300
0600
ENDCHAR
STARTCHAR epd-3082
ENCODING 12418
SWIDTH 880 0
DWIDTH 11 0
BBX 9 10 1 -1
BITMAP
1000
1000
FC00
3000
2100
FD80
2080
2080
3180
1F00
ENDCHAR
STARTCHAR epd-308A
ENCODING 12426
SWIDTH 880 0
DWIDTH 11 0
BBX 7 10 2 -1
BITMAP
40
5C
E6
C2
C2
C2
06
04
18
30
ENDCHAR
STARTCHAR epd-30B9
ENCODING 12473
SWIDTH 880 0
DWIDTH 11 0
BBX 9 8 1 0
BITMAP
7F00
0200
0600
0400
0C00
1A00
7300
C180
ENDCHAR
STARTCHAR epd-30C4
ENCODING 12484
SWIDTH 880 0
DWIDTH 11 0
BBX 9 8 1 0
BITMAP
9880
C980
4900
4100
0200
0600
0C00
3800
ENDCHAR
STARTCHAR epd-30DD
ENCODING 12509
SWIDTH 880 0
DWIDTH 11 0
BBX 9 9 1 0
BITMAP
0980
0980
FF80
0800
4900
4900
8880
0800
3800
ENDCHAR
STARTCHAR epd-30FC
ENCODING 12540
SWIDTH 880 0
DWIDTH 11 0
BBX 9 1 1 4
BITMAP
FF80
ENDCHAR
STARTCHAR epd-4E00
ENCODING 19968
SWIDTH 880 0
DWIDTH 11 0
BBX 10 1 1 4
BITMAP
FFC0
ENDCHAR
STARTCHAR epd-4E01
ENCODING 19969
SWIDTH 880 0
DWIDTH 11 0
BBX 10 9 0 -1
BITMAP
FFC0
0400
0400
0400
0400
0400
0400
0400
1C00
ENDCHAR
STARTCHAR epd-4E03
ENCODING 19971
SWIDTH 880 0
DWIDTH 11 0
BBX 10 10 1 -1
BITMAP
1000
1000
1000
1FC0
FC00
1000
1000
1080
1080
1F80
ENDCHAR
STARTCHAR epd-4E09
ENCODING 19977
SWIDTH 880 0
DWIDTH 11 0
BBX 10 8 0 0
BITMAP
7F80
0000
0000
3F80
0000
0000
0000
FFC0
ENDCHAR
STARTCHAR epd-4E11
ENCODING 19985
SWIDTH 880 0
DWIDTH 11 0
BBX 11 10 0 -1
BITMAP
7F80
3F80
1980
1980
FFE0
1100
1100
1100
7FE0
7FE0
ENDCHAR
STARTCHAR epd-4E19
ENCODING 19993
SWIDTH 880 0
DWIDTH 11 0
BBX 9 10 1 -1
BITMAP
FF80
FF80
0800
FF80
8980
9D80
B780
E380
8180
8300
ENDCHAR
STARTCHAR epd-4E59
ENCODING 20057
SWIDTH 880 0
DWIDTH 11 0
BBX 9 8 1 0
BITMAP
FF00
0600
1800
3000
6000
C080
8080
FF80
ENDCHAR
STARTCHAR epd-4E5D
ENCODING 20061
SWIDTH 880 0
DWIDTH 11 0
BBX 10 10 1 -1
BITMAP
1000
1000
1000
FE00
1200
3200
2200
2200
4240
83C0
ENDCHAR
STARTCHAR epd-4E8C
ENCODING 20108
SWIDTH 880 0
DWIDTH 11 0
BBX 10 8 1 0
BITMAP
7F80
0000
0000
0000
0000
0000
0000
FFC0
ENDCHAR
STARTCHAR epd-4E94
ENCODING 20116
SWIDTH 880 0
DWIDTH 11 0
BBX 9 9 1 -1
BITMAP
FF00
1000
1000
7E00
1200
3200
2200
FF80
FF80
ENDCHAR
STARTCHAR epd-4EA5
ENCODING 20133
SWIDTH 880 0
DWIDTH 11 0
BBX 9 10 1 -1
BITMAP
0800
FF80
1800
3200
6400
3900
7300
8E00
3B00
E180
ENDCHAR
STARTCHAR epd-4EBA
ENCODING 20154
SWIDTH 880 0
DWIDTH 11 0
BBX 9 10 1 -1
BITMAP
0800
0800
0800
1C00
1C00
1400
3200
6300
C180
8080
ENDCHAR
STARTCHAR epd-4ECF
ENCODING 20175
SWIDTH 880 0
DWIDTH 11 0
BBX 11 10 0 -1
BITMAP
1200
3200
2200
6200
E600
2480
2440
2440
3FE0
2020
ENDCHAR
STARTCHAR epd-4EE4
ENCODING 20196
SWIDTH 880 0
DWIDTH 11 0
BBX 9 10 1 -1
BITMAP
0C00
1600
6300
FF80
0000
FF00
1900
1900
1B00
1800
ENDCHAR
STARTCHAR epd-4F11
ENCODING 20241
SWIDTH 880 0
DWIDTH 11 0
BBX 10 10 0 -1
BITMAP
3200
2200
7FC0
E700
2700
2E80
2A80
3240
2200
2200
ENDCHAR
STARTCHAR epd-4F4D
ENCODING 20301
SWIDTH 880 0
DWIDTH 11 0
BBX 10 10 1 -1
BITMAP
2200
6200
5FC0
C080
C880
4D80
4500
4500
5FC0
4000
ENDCHAR
STARTCHAR epd-4F53
ENCODING 20307
SWIDTH 880 0
DWIDTH 11 0
BBX 10 10 1 -1
BITMAP
2200
6200
5FC0
C700
C700
4A80
5AC0
5FC0
4200
4200
ENDCHAR
STARTCHAR epd-5100
ENCODING 20736
SWIDTH 880 0
DWIDTH 11 0
BBX 10 10 1 -1
BITMAP
6980
7F80
5F80
FFC0
DD80
4980
7FC0
5D80
4980
5AC0
ENDCHAR
STARTCHAR epd-5143
ENCODING 20803
SWIDTH 880 0
DWIDTH 11 0
BBX 10 9 1 -1
BITMAP
7F80
0000
FF80
FF80
3200
2200
2200
6240
C380
ENDCHAR
STARTCHAR epd-5148
ENCODING 20808
SWIDTH 880 0
DWIDTH 11 0
BBX 10 10 1 -1
BITMAP
4800
7F80
C800
8800
FF80
FF80
2600
2600
6640
C3C0
ENDCHAR
STARTCHAR epd-514E
ENCODING 20814
SWIDTH 880 0
DWIDTH 11 0
BBX 10 10 1 -1
BITMAP
FF80
0800
7F80
4880
5880
7F80
1D00
1580
2440
C7C0
ENDCHAR
STARTCHAR epd-5154
ENCODING 20820
SWIDTH 880 0
DWIDTH 11 0
BBX 10 11 1 -1
BITMAP
1000
3E00
2200
6600
FF80
4480
4C80
7F80
1B00
3240
C3C0
ENDCHAR
STARTCHAR epd-516B
ENCODING 20843
SWIDTH 880 0
DWIDTH 11 0
BBX 9 10 1 -1
BITMAP
3C00
3E00
0600
2200
6200
6200
4300
C100
8180
0080
ENDCHAR
STARTCHAR epd-516D
ENCODING 20845
SWIDTH 880 0
DWIDTH 11 0
BBX 9 10 1 -1
BITMAP
0800
0800
FF80
0000
0000
2200
6300
4180
C080
8080
ENDCHAR
STARTCHAR epd-51AC
ENCODING 20908
SWIDTH 880 0
DWIDTH 11 0
BBX 10 10 0 -1
BITMAP
1000
3F80
7300
DE00
0E00
7BC0
DC40
0600
3C00
0700
ENDCHAR
STARTCHAR epd-5206
ENCODING 20998
SWIDTH 880 0
DWIDTH 11 0
BBX 10 10 1 -1
BITMAP
3200
2300
4180
C1C0
FFC0
1100
1100
3100
6100
C700
ENDCHAR
STARTCHAR epd-521D
ENCODING 21021
SWIDTH 880 0
DWIDTH 11 0
BBX 11 10 0 -1
BITMAP
2240
7260
7240
3240
3A40
7240
F640
2440
2CC0
29C0
ENDCHAR
STARTCHAR epd-52B4
ENCODING 21172
SWIDTH 880 0
DWIDTH 11 0
BBX 10 10 1 -1
BITMAP
4980
6900
FFC0
88C0
8800
FF80
1980
1180
6100
C700
ENDCHAR
STARTCHAR epd-52DD
ENCODING 21213
SWIDTH 880 0
DWIDTH 11 0
BBX 11 10 0 -1
BITMAP
7AC0
5FC0
7780
5FE0
54C0
7A40
5FC0
52C0
D4C0
B980
ENDCHAR
STARTCHAR epd-52E4
ENCODING 21220
SWIDTH 880 0
DWIDTH 11 0
BBX 10 10 1 -1
BITMAP
FA00
5200
FFC0
AAC0
FAC0
FAC0
22C0
FCC0
3C80
C980
ENDCHAR
STARTCHAR epd-5316
ENCODING 21270
SWIDTH 880 0
DWIDTH 11 0
BBX 10 10 0 -1
BITMAP
1400
3400
24C0
6580
E600
2400
2400
2440
2440
27C0
ENDCHAR
STARTCHAR epd-5341
ENCODING 21313
SWIDTH 880 0
DWIDTH 11 0
BBX 10 10 1 -1
BITMAP
0800
0800
0800
0800
FFC0
0800
0800
0800
0800
0800
ENDCHAR
STARTCHAR epd-5348
ENCODING 21320
SWIDTH 880 0
DWIDTH 11 0
BBX 10 10 1 -1
BITMAP
6000
7F80
C800
8800
0800
FFC0
0800
0800
0800
0800
ENDCHAR
STARTCHAR epd-536F
ENCODING 21359
SWIDTH 880 0
DWIDTH 11 0
BBX 9 10 1 -1
BITMAP
3000
E780
9480
9480
9480
9480
F480
3580
6400
C400
ENDCHAR
STARTCHAR epd-5373
ENCODING 21363
SWIDTH 880 0
DWIDTH 11 0
BBX 10 10 0 -1
BITMAP
7BC0
4A40
7A40
4A40
7A40
4240
5240
5AC0
EE00
0200
ENDCHAR
STARTCHAR epd-53CB
ENCODING 21451
SWIDTH 880 0
DWIDTH 11 0
BBX 10 10 1 -1
BITMAP
1000
FFC0
1000
3000
3F00
3100
6B00
4E00
CF00
B1C0
ENDCHAR
STARTCHAR epd-53E3
ENCODING 21475
SWIDTH 880 0
DWIDTH 11 0
BBX 9 9 1 -1
BITMAP
FF80
C080
C080
C080
C080
C080
C080
FF80
C080
ENDCHAR
STARTCHAR epd-5468
ENCODING 21608
SWIDTH 880 0
DWIDTH 11 0
BBX 10 10 0 -1
BITMAP
7FC0
6040
7F40
6440
7FC0
6040
7F40
5940
5F40
81C0
ENDCHAR
STARTCHAR epd-548C
ENCODING 21644
SWIDTH 880 0
DWIDTH 11 0
BBX 10 10 1 -1
BITMAP
3000
E7C0
24C0
FCC0
64C0
74C0
6CC0
A4C0
A7C0
2480
ENDCHAR
STARTCHAR epd-56DB
ENCODING 22235
SWIDTH 880 0
DWIDTH 11 0
BBX 9 10 1 -1
BITMAP
FF80
FF80
9580
9580
B780
A780
8180
8180
FF80
8180
ENDCHAR
STARTCHAR epd-56FD
ENCODING 22269
SWIDTH 880 0
DWIDTH 11 0
BBX 9 10 1 -1
BITMAP
FF80
8080
BE80
8880
BE80
8A80
8A80
BE80
FF80
8080
ENDCHAR
STARTCHAR epd-570B
ENCODING 22283
SWIDTH 880 0
DWIDTH 11 0
BBX 9 10 1 -1
BITMAP
FF80
8280
FF80
8480
B680
B680
9C80
8B80
FF80
8080
ENDCHAR
STARTCHAR epd-571F
ENCODING 22303
SWIDTH 880 0
DWIDTH 11 0
BBX 9 9 1 0
BITMAP
0800
0800
0800
FF80
0800
0800
0800
0800
FF80
ENDCHAR
STARTCHAR epd-58EC
ENCODING 22764
SWIDTH 880 0
DWIDTH 11 0
BBX 11 10 0 -1
BITMAP
0F80
7C00
0400
0400
FFE0
0400
0400
0400
7FC0
3FC0
ENDCHAR
STARTCHAR epd-5904
ENCODING 22788
SWIDTH 880 0
DWIDTH 11 0
BBX 9 12 1 -2
BITMAP
FF80
C180
C080
A280
9480
8880
8880
9480
A280
C180
C180
FF80
ENDCHAR
STARTCHAR epd-590F
ENCODING 22799
SWIDTH 880 0
DWIDTH 11 0
BBX 9 10 1 -1
BITMAP
FF80
7F00
7F00
4100
7F00
7F00
3F00
F600
1E00
E380
ENDCHAR
STARTCHAR epd-5927
ENCODING 22823
SWIDTH 880 0
DWIDTH 11 0
BBX 10 10 1 -1
BITMAP
0800
0800
0800
FFC0
0C00
1C00
1200
3300
6180
C0C0
ENDCHAR
STARTCHAR epd-5929
ENCODING 22825
SWIDTH 880 0
DWIDTH 11 0
BBX 9 9 1 -1
BITMAP
FF80
0800
0800
FF80
0C00
1C00
3600
6380
8080
ENDCHAR
STARTCHAR epd-5982
ENCODING 22914
SWIDTH 880 0
DWIDTH 11 0
BBX 10 10 0 -1
BITMAP
2000
23C0
FE40
4A40
4A40
5A40
7240
3A40
2FC0
4240
ENDCHAR
STARTCHAR epd-5B50
ENCODING 23376
SWIDTH 880 0
DWIDTH 11 0
BBX 11 10 0 -1
BITMAP
7FC0
0180
0300
0600
0400
FFE0
0400
0400
0400
1C00
ENDCHAR
STARTCHAR epd-5BC5
ENCODING 23493
SWIDTH 880 0
DWIDTH 11 0
BBX 9 10 1 -1
BITMAP
FF80
8080
BE80
0800
7F00
7F00
4900
7F00
3700
C180
ENDCHAR
STARTCHAR epd-5BD2
ENCODING 23506
SWIDTH 880 0
DWIDTH 11 0
BBX 11 10 0 -1
BITMAP
0C00
D260
FFE0
3F00
1200
FFC0
3B00
6CC0
9800
0700
ENDCHAR
STARTCHAR epd-5C0F
ENCODING 23567
SWIDTH 880 0
DWIDTH 11 0
BBX 10 10 1 -1
BITMAP
0800
0800
0800
4900
4980
8880
88C0
0800
0800
3800
ENDCHAR
STARTCHAR epd-5C71
ENCODING 23665
SWIDTH 880 0
DWIDTH 11 0
BBX 9 10 1 -1
BITMAP
0800
0800
8800
8980
8980
8980
8980
8980
FF80
8180
ENDCHAR
STARTCHAR epd-5DF1
ENCODING 24049
SWIDTH 880 0
DWIDTH 11 0
BBX 10 10 1 -1
BITMAP
FF00
0100
0100
0100
FF00
C100
C000
C040
40C0
7F80
ENDCHAR
STARTCHAR epd-5DF3
ENCODING 24051
SWIDTH 880 0
DWIDTH 11 0
BBX 10 10 1 -1
BITMAP
FF80
C180
C180
C180
FF80
C100
C000
C040
C0C0
7F80
ENDCHAR
STARTCHAR epd-5E2B
ENCODING 24107
SWIDTH 880 0
DWIDTH 11 0
BBX 10 11 1 -1
BITMAP
4000
4FC0
E200
AF80
EA80
8A80
EA80
AA80
AA80
E200
8200
ENDCHAR
STARTCHAR epd-5E74
ENCODING 24180
SWIDTH 880 0
DWIDTH 11 0
BBX 10 10 0 -1
BITMAP
3000
3F80
4400
C400
3F80
2400
FFC0
7FC0
0400
0400
ENDCHAR
STARTCHAR epd-5E9A
ENCODING 24218
SWIDTH 880 0
DWIDTH 11 0
BBX 10 10 1 -1
BITMAP
0400
FFC0
FF80
C480
FFC0
C480
FF80
CE00
9900
A0C0
ENDCHAR
STARTCHAR epd-5EFA
ENCODING 24314
SWIDTH 880 0
DWIDTH 11 0
BBX 10 10 0 -1
BITMAP
EFC0
2240
4240
7FC0
0F80
6200
7FC0
6200
7000
CFC0
ENDCHAR
STARTCHAR epd-5EFF
ENCODING 24319
SWIDTH 880 0
DWIDTH 11 0
BBX 11 10 0 -1
BITMAP
3180
3180
FFE0
3180
3180
3180
3180
3180
3F80
3180
ENDCHAR
STARTCHAR epd-5F15
ENCODING 24341
SWIDTH 880 0
DWIDTH 11 0
BBX 8 10 1 -1
BITMAP
F9
19
19
F9
81
F9
19
11
11
71
ENDCHAR
STARTCHAR epd-5F25
ENCODING 24357
SWIDTH 880 0
DWIDTH 11 0
BBX 10 10 1 -1
BITMAP
E800
2F80
3F80
F200
8A00
EA80
2A80
3240
2200
C600
ENDCHAR
STARTCHAR epd-5FF5
ENCODING 24565
SWIDTH 880 0
DWIDTH 11 0
BBX 10 10 0 -1
BITMAP
0C00
3B00
FFC0
C040
7F80
0300
0E00
5080
D340
9E00
ENDCHAR
STARTCHAR epd-60CA
ENCODING 24778
SWIDTH 880 0
DWIDTH 11 0
BBX 10 10 1 -1
BITMAP
4200
5FC0
E000
EF80
4880
4F80
4200
4A80
52C0
4600
ENDCHAR
STARTCHAR epd-611F
ENCODING 24863
SWIDTH 880 0
DWIDTH 11 0
BBX 10 10 1 -1
BITMAP
0580
FFC0
FC80
FB00
EB40
BF40
8DC0
5D80
D2C0
9E40
ENDCHAR
STARTCHAR epd-61B2
ENCODING 25010
SWIDTH 880 0
DWIDTH 11 0
BBX 9 10 1 -1
BITMAP
FF80
FF80
FF80
7F00
FF80
7F00
7F00
1800
A180
BE80
ENDCHAR
STARTCHAR epd-620A
ENCODING 25098
SWIDTH 880 0
DWIDTH 11 0
BBX 11 10 0 -1
BITMAP
0280
0240
7FE0
6200
6240
6380
6180
6320
47A0
C8E0
ENDCHAR
STARTCHAR epd-620C
ENCODING 25100
SWIDTH 880 0
DWIDTH 11 0
BBX 10 10 1 -1
BITMAP
0500
0480
FFC0
C400
C480
FF00
C300
C640
8F40
9980
ENDCHAR
STARTCHAR epd-6210
ENCODING 25104
SWIDTH 880 0
DWIDTH 11 0
BBX 10 10 1 -1
BITMAP
0500
0480
FFC0
C400
FF80
DB00
DB00
F240
8F80
8980
ENDCHAR
STARTCHAR epd-632F
ENCODING 25391
SWIDTH 880 0
DWIDTH 11 0
BBX 10 10 1 -1
BITMAP
5FC0
5800
FFC0
5800
7FC0
FD00
5D80
5480
5780
CC40
ENDCHAR
STARTCHAR epd-656C
ENCODING 25964
SWIDTH 880 0
DWIDTH 11 0
BBX 10 10 0 -1
BITMAP
2A00
FE00
63C0
7E80
F680
5F80
5D80
7980
0F80
1C40
ENDCHAR
STARTCHAR epd-6587
ENCODING 25991
SWIDTH 880 0
DWIDTH 11 0
BBX 9 10 1 -1
BITMAP
0800
FF80
6300
2200
2200
1400
1C00
3E00
E380
8080
ENDCHAR
STARTCHAR epd-65E5
ENCODING 26085
SWIDTH 880 0
DWIDTH 11 0
BBX 8 10 1 -1
BITMAP
FF
C1
C1
C1
FF
C1
C1
C1
FF
C1
ENDCHAR
STARTCHAR epd-660E
ENCODING 26126
SWIDTH 880 0
DWIDTH 11 0
BBX 10 10 1 -1
BITMAP
FFC0
BCC0
BCC0
FFC0
BCC0
BFC0
FCC0
88C0
18C0
3180
ENDCHAR
STARTCHAR epd-661F
ENCODING 26143
SWIDTH 880 0
DWIDTH 11 0
BBX 9 10 1 -1
BITMAP
7F00
4100
4100
7F00
4800
7F80
8800
7F00
0800
FF80
ENDCHAR
STARTCHAR epd-6625
ENCODING 26149
SWIDTH 880 0
DWIDTH 11 0
BBX 10 10 1 -1
BITMAP
1800
1800
7F80
1600
FFC0
7F00
E3C0
3E00
2200
3E00
ENDCHAR
STARTCHAR epd-662D
ENCODING 26157
SWIDTH 880 0
DWIDTH 11 0
BBX 9 10 1 -1
BITMAP
1F80
FF80
A480
AC80
F100
BF80
B880
E880
8F80
0880
ENDCHAR
STARTCHAR epd-6691
ENCODING 26257
SWIDTH 880 0
DWIDTH 11 0
BBX 10 10 1 -1
BITMAP
7F00
7F00
7F00
0880
3F80
FFC0
3F00
FF00
7F00
7F00
ENDCHAR
STARTCHAR epd-66DC
ENCODING 26332
SWIDTH 880 0
DWIDTH 11 0
BBX 10 10 1 -1
BITMAP
FF80
BF80
A480
BF80
EF80
BF80
BF80
FF80
9FC0
1F80
ENDCHAR
STARTCHAR epd-66FF
ENCODING 26367
SWIDTH 880 0
DWIDTH 11 0
BBX 10 10 0 -1
BITMAP
3100
7B80
FFC0
3380
6EC0
3F80
2080
3F80
2080
3F80
ENDCHAR
STARTCHAR epd-6708
ENCODING 26376
SWIDTH 880 0
DWIDTH 11 0
BBX 9 10 1 -1
BITMAP
7F80
6180
6180
7F80
6180
6180
7F80
4180
C180
8700
ENDCHAR
STARTCHAR epd-6709
ENCODING 26377
SWIDTH 880 0
DWIDTH 11 0
BBX 10 10 1 -1
BITMAP
1000
FFC0
2000
7F00
6100
FF00
2100
3F00
2100
2700
ENDCHAR
STARTCHAR epd-671F
ENCODING 26399
SWIDTH 880 0
DWIDTH 11 0
BBX 10 10 1 -1
BITMAP
DFC0
FEC0
DEC0
FFC0
DEC0
DFC0
FEC0
FEC0
D4C0
8580
ENDCHAR
STARTCHAR epd-6728
ENCODING 26408
SWIDTH 880 0
DWIDTH 11 0
BBX 9 10 1 -1
BITMAP
0800
0800
FF80
1C00
1C00
2A00
6900
C980
0800
0800
ENDCHAR
STARTCHAR epd-672A
ENCODING 26410
SWIDTH 880 0
DWIDTH 11 0
BBX 9 10 1 -1
BITMAP
0800
FF80
0800
0800
FF80
1C00
3E00
6B00
C980
0800
ENDCHAR
STARTCHAR epd-6B63
ENCODING 27491
SWIDTH 880 0
DWIDTH 11 0
BBX 10 9 1 -1
BITMAP
FF80
0C00
4C00
4F80
4C00
4C00
4C00
FFC0
FFC0
ENDCHAR
STARTCHAR epd-6BBF
ENCODING 27583
SWIDTH 880 0
DWIDTH 11 0
BBX 11 10 0 -1
BITMAP
FF80
CE80
FEA0
EEE0
FFC0
CBC0
FFC0
E980
EBC0
E640
ENDCHAR
STARTCHAR epd-6C11
ENCODING 27665
SWIDTH 880 0
DWIDTH 11 0
BBX 10 10 1 -1
BITMAP
7F80
4080
7F80
7F80
4400
7FC0
4600
4200
FB40
C180
ENDCHAR
STARTCHAR epd-6C34
ENCODING 27700
SWIDTH 880 0
DWIDTH 11 0
BBX 10 10 0 -1
BITMAP
0400
0400
0440
FEC0
1700
3700
2500
64C0
C440
1C00
ENDCHAR
STARTCHAR epd-6CD5
ENCODING 27861
SWIDTH 880 0
DWIDTH 11 0
BBX 10 10 0 -1
BITMAP
6200
0FC0
0200
C200
1FC0
0400
2480
4880
5FC0
0040
ENDCHAR
STARTCHAR epd-6D77
ENCODING 28023
SWIDTH 880 0
DWIDTH 11 0
BBX 10 10 1 -1
BITMAP
4800
1FC0
1000
DF80
4280
3FC0
5480
5FC0
DFC0
8300
ENDCHAR
STARTCHAR epd-6E05
ENCODING 28165
SWIDTH 880 0
DWIDTH 11 0
BBX 9 10 1 -1
BITMAP
DF80
4200
1F80
9F80
1F80
1880
5F80
5F80
9880
9980
ENDCHAR
STARTCHAR epd-6EC5
ENCODING 28357
SWIDTH 880 0
DWIDTH 11 0
BBX 10 10 1 -1
BITMAP
C1C0
3FC0
BD00
FD40
39C0
3F80
7D80
BD80
A2C0
A4C0
ENDCHAR
STARTCHAR epd-6EE1
ENCODING 28385
SWIDTH 880 0
DWIDTH 11 0
BBX 9 12 1 -2
BITMAP
FF80
C180
C080
A280
9480
8880
8880
9480
A280
C180
C180
FF80
ENDCHAR
STARTCHAR epd-706B
ENCODING 28779
SWIDTH 880 0
DWIDTH 11 0
BBX 9 10 1 -1
BITMAP
0800
0800
4880
4980
C900
9C00
1400
2600
6300
8080
ENDCHAR
STARTCHAR epd-7121
ENCODING 28961
SWIDTH 880 0
DWIDTH 11 0
BBX 10 10 1 -1
BITMAP
6000
FF80
D500
FFC0
5500
5500
FF80
0100
D480
9680
ENDCHAR
STARTCHAR epd-725B
ENCODING 29275
SWIDTH 880 0
DWIDTH 11 0
BBX 10 10 0 -1
BITMAP
2400
2400
7FC0
4400
0400
FFC0
0400
0400
0400
0400
ENDCHAR
STARTCHAR epd-72AC
ENCODING 29356
SWIDTH 880 0
DWIDTH 11 0
BBX 10 10 1 -1
BITMAP
0D00
0D80
0C00
FFC0
0C00
1C00
1200
3300
6180
C0C0
ENDCHAR
STARTCHAR epd-72D7
ENCODING 29399
SWIDTH 880 0
DWIDTH 11 0
BBX 10 10 1 -1
BITMAP
E800
4FC0
F0C0
3EC0
6AC0
EAC0
AEC0
2880
2080
C380
ENDCHAR
STARTCHAR epd-732A
ENCODING 29482
SWIDTH 880 0
DWIDTH 11 0
BBX 10 10 1 -1
BITMAP
A200
5F80
E300
BFC0
6600
6FC0
BCC0
2FC0
2CC0
CFC0
ENDCHAR
STARTCHAR epd-7334
ENCODING 29492
SWIDTH 880 0
DWIDTH 11 0
BBX 10 10 0 -1
BITMAP
6F80
6880
FFC0
3A00
2FC0
6D00
AFC0
2900
2A80
6E40
ENDCHAR
STARTCHAR epd-733F
ENCODING 29503
SWIDTH 880 0
DWIDTH 11 0
BBX 10 10 1 -1
BITMAP
A300
6300
FFC0
AF80
2C80
6F80
A700
3D80
2580
DEC0
ENDCHAR
STARTCHAR epd-73ED
ENCODING 29677
SWIDTH 880 0
DWIDTH 11 0
BBX 10 10 1 -1
BITMAP
E5C0
5480
5480
5480
F5C0
5480
4480
6C80
8BC0
13C0
ENDCHAR
STARTCHAR epd-751F
ENCODING 29983
SWIDTH 880 0
DWIDTH 11 0
BBX 10 10 1 -1
BITMAP
4800
4800
FF80
8800
0800
7F80
0800
0800
FF80
FFC0
ENDCHAR
STARTCHAR epd-7532
ENCODING 30002
SWIDTH 880 0
DWIDTH 11 0
BBX 9 10 1 -1
BITMAP
FF80
FF80
C880
FF80
C880
FF80
4880
0800
0800
0800
ENDCHAR
STARTCHAR epd-7533
ENCODING 30003
SWIDTH 880 0
DWIDTH 11 0
BBX 9 10 1 -1
BITMAP
0800
FF80
C880
C880
FF80
C880
FF80
C880
0800
0800
ENDCHAR
STARTCHAR epd-7678
ENCODING 30328
SWIDTH 880 0
DWIDTH 11 0
BBX 9 10 1 -1
BITMAP
F700
B680
E380
6300
FF80
0800
FF80
1C00
3600
C180
ENDCHAR
STARTCHAR epd-767D
ENCODING 30333
SWIDTH 880 0
DWIDTH 11 0
BBX 9 11 1 -1
BITMAP
0800
1800
FF80
C180
C180
C180
FF80
C180
C180
FF80
C180
ENDCHAR
STARTCHAR epd-7687
ENCODING 30343
SWIDTH 880 0
DWIDTH 11 0
BBX 9 10 1 -1
BITMAP
0800
7F00
7F00
4100
7F00
7F00
0800
7F00
0800
FF80
ENDCHAR
STARTCHAR epd-7690
ENCODING 30352
SWIDTH 880 0
DWIDTH 11 0
BBX 10 10 1 -1
BITMAP
1800
C300
FF00
FF00
0800
FF00
FF00
FFC0
0800
0800
ENDCHAR
STARTCHAR epd-7766
ENCODING 30566
SWIDTH 880 0
DWIDTH 11 0
BBX 11 10 0 -1
BITMAP
F100
D7C0
D100
FFC0
F4A0
D100
D7C0
F100
C100
0FE0
ENDCHAR
STARTCHAR epd-793C
ENCODING 31036
SWIDTH 880 0
DWIDTH 11 0
BBX 10 10 0 -1
BITMAP
2200
FA00
7A00
1200
3200
7A00
AA00
2240
2240
23C0
ENDCHAR
STARTCHAR epd-795E
ENCODING 31070
SWIDTH 880 0
DWIDTH 11 0
BBX 11 10 0 -1
BITMAP
2100
2100
7FE0
1D60
2FE0
7D60
EFE0
2100
2100
2100
ENDCHAR
STARTCHAR epd-79BB
ENCODING 31163
SWIDTH 880 0
DWIDTH 11 0
BBX 9 10 1 -1
BITMAP
FF80
D500
5D00
7D00
7F00
1800
FF80
9580
FF80
8380
ENDCHAR
STARTCHAR epd-79CB
ENCODING 31179
SWIDTH 880 0
DWIDTH 11 0
BBX 10 10 0 -1
BITMAP
3100
6100
2540
FD40
65C0
7100
E380
A280
24C0
2840
ENDCHAR
STARTCHAR epd-79CD
ENCODING 31181
SWIDTH 880 0
DWIDTH 11 0
BBX 10 10 0 -1
BITMAP
3100
6100
27C0
FD40
3540
7FC0
E540
2100
2100
2100
ENDCHAR
STARTCHAR epd-7ACB
ENCODING 31435
SWIDTH 880 0
DWIDTH 11 0
BBX 10 9 1 0
BITMAP
0800
0800
FF80
0000
2300
2200
2200
0400
FFC0
ENDCHAR
STARTCHAR epd-7B2C
ENCODING 31532
SWIDTH 880 0
DWIDTH 11 0
BBX 10 10 1 -1
BITMAP
4400
FFC0
A900
0D80
7F80
4800
FFC0
38C0
E980
8800
ENDCHAR
STARTCHAR epd-7F8A
ENCODING 32650
SWIDTH 880 0
DWIDTH 11 0
BBX 10 10 1 -1
BITMAP
2300
3600
FF80
0800
7F00
0800
FFC0
0800
0800
0800
ENDCHAR
STARTCHAR epd-8001
ENCODING 32769
SWIDTH 880 0
DWIDTH 11 0
BBX 9 10 1 -1
BITMAP
1080
FF00
1300
FF80
FF80
3000
FF00
B000
2080
3F80
ENDCHAR
STARTCHAR epd-80B2
ENCODING 32946
SWIDTH 880 0
DWIDTH 11 0
BBX 9 10 1 -1
BITMAP
FF80
FF80
6300
F980
7F00
6300
7F00
7F00
4100
4700
ENDCHAR
STARTCHAR epd-814A
ENCODING 33098
SWIDTH 880 0
DWIDTH 11 0
BBX 10 10 0 -1
BITMAP
7680
5FC0
5680
7FC0
5000
77C0
57C0
D4C0
D7C0
B440
ENDCHAR
STARTCHAR epd-81F3
ENCODING 33267
SWIDTH 880 0
DWIDTH 11 0
BBX 9 9 1 0
BITMAP
FF80
3200
2300
FF80
0080
0800
FF80
0800
FF80
ENDCHAR
STARTCHAR epd-8292
ENCODING 33426
SWIDTH 880 0
DWIDTH 11 0
BBX 9 10 1 -1
BITMAP
2200
FF80
2A00
2A00
FF80
8000
8000
8000
8000
FF80
ENDCHAR
STARTCHAR epd-8449
ENCODING 33865
SWIDTH 880 0
DWIDTH 11 0
BBX 10 10 1 -1
BITMAP
FFC0
6F00
FF80
4B00
4F00
7F80
0800
FFC0
3B00
C880
ENDCHAR
STARTCHAR epd-864E
ENCODING 34382
SWIDTH 880 0
DWIDTH 11 0
BBX 10 10 1 -1
BITMAP
0C00
5F80
FFC0
CE80
FC80
CF80
D200
D200
B2C0
E3C0
ENDCHAR
STARTCHAR epd-86C7
ENCODING 34503
SWIDTH 880 0
DWIDTH 11 0
BBX 10 10 0 -1
BITMAP
2100
37C0
FC40
EE40
EA80
FB80
2200
2A40
FA40
03C0
ENDCHAR
STARTCHAR epd-86F0
ENCODING 34544
SWIDTH 880 0
DWIDTH 11 0
BBX 9 12 1 -2
BITMAP
FF80
C180
C080
A280
9480
8880
8880
9480
A280
C180
C180
FF80
ENDCHAR
STARTCHAR epd-8A18
ENCODING 35352
SWIDTH 880 0
DWIDTH 11 0
BBX 10 10 1 -1
BITMAP
FF80
F080
0080
F080
0F80
6C80
FC00
9C40
FC40
8780
ENDCHAR
STARTCHAR epd-8A95
ENCODING 35477
SWIDTH 880 0
DWIDTH 11 0
BBX 10 10 1 -1
BITMAP
FB80
E880
1280
DEC0
E680
1280
FA80
BFC0
FC00
97C0
ENDCHAR
STARTCHAR epd-8B1D
ENCODING 35613
SWIDTH 880 0
DWIDTH 11 0
BBX 10 10 1 -1
BITMAP
EC80
F680
1FC0
F680
1E80
1780
FF80
BE80
F680
8D80
ENDCHAR
STARTCHAR epd-8C37
ENCODING 35895
SWIDTH 880 0
DWIDTH 11 0
BBX 10 10 1 -1
BITMAP
2300
6980
9C00
3200
6180
FFC0
2100
2100
2100
3F00
ENDCHAR
STARTCHAR epd-8CA0
ENCODING 36000
SWIDTH 880 0
DWIDTH 11 0
BBX 9 10 1 -1
BITMAP
3C00
4400
FF00
4100
7F00
4100
4100
7F00
2300
C180
ENDCHAR
STARTCHAR epd-8D64
ENCODING 36196
SWIDTH 880 0
DWIDTH 11 0
BBX 9 10 1 -1
BITMAP
0800
7F80
0800
FF80
FF80
5500
D580
B480
2400
4C00
ENDCHAR
STARTCHAR epd-8D70
ENCODING 36208
SWIDTH 880 0
DWIDTH 11 0
BBX 10 10 1 -1
BITMAP
0800
7F80
0800
FF80
0800
4800
4F80
6800
B800
8FC0
ENDCHAR
STARTCHAR epd-8F9B
ENCODING 36763
SWIDTH 880 0
DWIDTH 11 0
BBX 9 10 1 -1
BITMAP
0800
FF80
2300
FF80
FF80
0800
FF80
0800
0800
0800
ENDCHAR
STARTCHAR epd-8FB0
ENCODING 36784
SWIDTH 880 0
DWIDTH 11 0
BBX 11 10 0 -1
BITMAP
7FE0
6000
6FC0
6000
7FE0
6A40
6B80
4980
DEC0
1000
ENDCHAR
STARTCHAR epd-8FD8
ENCODING 36824
SWIDTH 880 0
DWIDTH 11 0
BBX 9 12 1 -2
BITMAP
FF80
C180
C080
A280
9480
8880
8880
9480
A280
C180
C180
FF80
ENDCHAR
STARTCHAR epd-9031
ENCODING 36913
SWIDTH 880 0
DWIDTH 11 0
BBX 10 10 1 -1
BITMAP
9F80
5280
1780
1780
DF80
7D80
7F80
6180
E000
9FC0
ENDCHAR
STARTCHAR epd-9149
ENCODING 37193
SWIDTH 880 0
DWIDTH 11 0
BBX 9 10 1 -1
BITMAP
FF80
FF80
1400
FF80
D480
E780
FF80
C080
FF80
C080
ENDCHAR
STARTCHAR epd-91D1
ENCODING 37329
SWIDTH 880 0
DWIDTH 11 0
BBX 9 10 1 -1
BITMAP
1800
3600
6300
FF80
0800
FF80
4900
2A00
FF80
FF80
ENDCHAR
STARTCHAR epd-9577
ENCODING 38263
SWIDTH 880 0
DWIDTH 11 0
BBX 10 10 0 -1
BITMAP
3F80
2000
3F80
3F00
3000
FFC0
2CC0
2780
2300
79C0
ENDCHAR
STARTCHAR epd-95F0
ENCODING 38384
SWIDTH 880 0
DWIDTH 11 0
BBX 9 12 1 -2
BITMAP
FF80
C180
C080
A280
9480
8880
8880
9480
A280
C180
C180
FF80
ENDCHAR
STARTCHAR epd-964D
ENCODING 38477
SWIDTH 880 0
DWIDTH 11 0
BBX 10 10 1 -1
BITMAP
E400
AF80
DF00
C780
B9C0
BFC0
E900
9FC0
9FC0
8100
ENDCHAR
STARTCHAR epd-96E8
ENCODING 38632
SWIDTH 880 0
DWIDTH 11 0
BBX 10 10 1 -1
BITMAP
FFC0
FF80
0800
FF80
8880
BB80
8880
AA80
8880
8B80
ENDCHAR
STARTCHAR epd-96EA
ENCODING 38634
SWIDTH 880 0
DWIDTH 11 0
BBX 9 10 1 -1
BITMAP
7F00
FF80
AB80
8800
7B00
7F00
0100
7F00
0100
7F00
ENDCHAR
STARTCHAR epd-971C
ENCODING 38684
SWIDTH 880 0
DWIDTH 11 0
BBX 10 10 1 -1
BITMAP
7F80
FFC0
AB40
6B00
0000
FFC0
6FC0
FFC0
FCC0
6FC0
ENDCHAR
STARTCHAR epd-9732
ENCODING 38706
SWIDTH 880 0
DWIDTH 11 0
BBX 10 10 1 -1
BITMAP
FF80
FFC0
FB40
6B00
F780
9F80
E780
BFC0
E480
F780
ENDCHAR
STARTCHAR epd-99AC
ENCODING 39340
SWIDTH 880 0
DWIDTH 11 0
BBX 11 10 0 -1
BITMAP
3FC0
2400
3F80
2400
2600
7FE0
3FE0
5560
5440
81C0
ENDCHAR
STARTCHAR epd-9A6C
ENCODING 39532
SWIDTH 880 0
DWIDTH 11 0
BBX 10 10 1 -1
BITMAP
FF00
0100
6100
4300
4200
7FC0
0080
FE80
0180
0780
ENDCHAR
STARTCHAR epd-9D8F
ENCODING 40335
SWIDTH 880 0
DWIDTH 11 0
BBX 11 10 0 -1
BITMAP
3900
67C0
6FC0
27C0
7FC0
2640
FFE0
35C0
7D40
C0C0
ENDCHAR
STARTCHAR epd-9E21
ENCODING 40481
SWIDTH 880 0
DWIDTH 11 0
BBX 9 12 1 -2
BITMAP
FF80
C180
C080
A280
9480
8880
8880
9480
A280
C180
C180
FF80
ENDCHAR
STARTCHAR epd-9F20
ENCODING 40736
SWIDTH 880 0
DWIDTH 11 0
BBX 10 10 1 -1
BITMAP
7780
4180
4180
7F80
7F00
7F00
4900
5F00
6BC0
DC80
ENDCHAR
STARTCHAR epd-9F8D
ENCODING 40845
SWIDTH 880 0
DWIDTH 11 0
BBX 10 10 0 -1
BITMAP
7FC0
4E00
47C0
F840
7FC0
4FC0
7FC0
7FC0
4E00
5BC0
ENDCHAR
STARTCHAR epd-9F99
ENCODING 40857
SWIDTH 880 0
DWIDTH 11 0
BBX 10 10 1 -1
BITMAP
1200
1100
FF80
FF80
3480
2500
2700
6600
DC40
9780
ENDCHAR
ENDFONT
