STARTFONT 2.1
FONT -epd-jp-ui-medium-r-normal--10-100-75-75-p-80-iso10646-1
SIZE 10 75 75
FONTBOUNDINGBOX 8 10 0 -1
STARTPROPERTIES 2
FONT_ASCENT 9
FONT_DESCENT 2
ENDPROPERTIES
CHARS 68
STARTCHAR epd-0041
ENCODING 65
SWIDTH 640 0
DWIDTH 8 0
BBX 8 8 0 0
BITMAP
18
18
24
24
66
7E
42
C3
ENDCHAR
STARTCHAR epd-0067
ENCODING 103
SWIDTH 640 0
DWIDTH 8 0
BBX 8 8 0 -2
BITMAP
3F
C6
C6
7C
40
7F
C3
7E
ENDCHAR
STARTCHAR epd-3053
ENCODING 12371
SWIDTH 640 0
DWIDTH 8 0
BBX 8 10 0 -1
BITMAP
7E
7E
00
00
00
00
80
80
E3
7F
ENDCHAR
STARTCHAR epd-3069
ENCODING 12393
SWIDTH 640 0
DWIDTH 8 0
BBX 8 10 0 -1
BITMAP
00
82
44
58
30
40
80
80
C0
7C
ENDCHAR
STARTCHAR epd-306E
ENCODING 12398
SWIDTH 560 0
DWIDTH 7 0
BBX 7 10 0 -1
BITMAP
38
7C
52
92
92
92
A2
E6
4C
08
ENDCHAR
STARTCHAR epd-307F
ENCODING 12415
SWIDTH 640 0
DWIDTH 8 0
BBX 8 10 0 -1
BITMAP
38
08
00
12
7E
C6
A3
E4
4C
08
ENDCHAR
STARTCHAR epd-3082
ENCODING 12418
SWIDTH 640 0
DWIDTH 8 0
BBX 8 10 0 -1
BITMAP
10
10
78
20
20
F9
21
21
33
1E
ENDCHAR
STARTCHAR epd-308A
ENCODING 12426
SWIDTH 640 0
DWIDTH 8 0
BBX 8 10 0 -1
BITMAP
C0
DE
E3
C3
C1
81
83
06
0C
30
ENDCHAR
STARTCHAR epd-308B
ENCODING 12427
SWIDTH 640 0
DWIDTH 8 0
BBX 8 10 0 -1
BITMAP
3E
0C
08
18
3E
43
99
29
26
1C
ENDCHAR
STARTCHAR epd-308C
ENCODING 12428
SWIDTH 640 0
DWIDTH 8 0
BBX 8 10 0 -1
BITMAP
20
20
EC
32
20
60
64
A4
27
20
ENDCHAR
STARTCHAR epd-308F
ENCODING 12431
SWIDTH 640 0
DWIDTH 8 0
BBX 8 10 0 -1
BITMAP
20
20
E4
3E
21
61
61
A3
26
20
ENDCHAR
STARTCHAR epd-30B9
ENCODING 12473
SWIDTH 640 0
DWIDTH 8 0
BBX 8 10 0 -1
BITMAP
7E
7E
04
04
0C
08
1C
32
63
81
ENDCHAR
STARTCHAR epd-30C4
ENCODING 12484
SWIDTH 640 0
DWIDTH 8 0
BBX 8 10 0 -1
BITMAP
10
91
D3
42
02
04
04
08
30
20
ENDCHAR
STARTCHAR epd-30DD
ENCODING 12509
SWIDTH 640 0
DWIDTH 8 0
BBX 8 10 0 -1
BITMAP
01
08
1B
FE
08
4A
4A
89
18
30
ENDCHAR
STARTCHAR epd-30FC
ENCODING 12540
SWIDTH 640 0
DWIDTH 8 0
BBX 8 10 0 -1
BITMAP
81
FF
FF
FF
FF
FF
FF
FF
FB
00
ENDCHAR
STARTCHAR epd-4EBA
ENCODING 20154
SWIDTH 640 0
DWIDTH 8 0
BBX 8 10 0 -1
BITMAP
10
10
18
18
18
08
24
24
42
81
ENDCHAR
STARTCHAR epd-4ECF
ENCODING 20175
SWIDTH 640 0
DWIDTH 8 0
BBX 8 10 0 -1
BITMAP
20
28
48
48
C8
42
42
52
3F
00
ENDCHAR
STARTCHAR epd-4F11
ENCODING 20241
SWIDTH 640 0
DWIDTH 8 0
BBX 8 10 0 -1
BITMAP
20
20
4C
5E
CC
4C
52
21
60
40
ENDCHAR
STARTCHAR epd-4F4D
ENCODING 20301
SWIDTH 560 0
DWIDTH 7 0
BBX 7 10 0 -1
BITMAP
00
48
5E
C0
D4
54
54
40
5E
40
ENDCHAR
STARTCHAR epd-4F53
ENCODING 20307
SWIDTH 640 0
DWIDTH 8 0
BBX 8 10 0 -1
BITMAP
00
40
7F
CC
CC
5E
52
7F
4C
40
ENDCHAR
STARTCHAR epd-5100
ENCODING 20736
SWIDTH 560 0
DWIDTH 7 0
BBX 7 10 0 -1
BITMAP
00
7C
58
DC
DC
54
5E
54
54
02
ENDCHAR
STARTCHAR epd-5143
ENCODING 20803
SWIDTH 640 0
DWIDTH 8 0
BBX 8 10 0 -1
BITMAP
7E
00
00
FF
2C
20
20
21
45
86
ENDCHAR
STARTCHAR epd-5148
ENCODING 20808
SWIDTH 640 0
DWIDTH 8 0
BBX 8 10 0 -1
BITMAP
00
78
7E
00
5A
3C
24
24
45
86
ENDCHAR
STARTCHAR epd-5206
ENCODING 20998
SWIDTH 640 0
DWIDTH 8 0
BBX 8 10 0 -1
BITMAP
24
24
42
43
FE
12
12
20
64
4C
ENDCHAR
STARTCHAR epd-52B4
ENCODING 21172
SWIDTH 640 0
DWIDTH 8 0
BBX 8 10 0 -1
BITMAP
50
42
7F
81
10
7E
12
32
62
C4
ENDCHAR
STARTCHAR epd-52DD
ENCODING 21213
SWIDTH 640 0
DWIDTH 8 0
BBX 8 10 0 -1
BITMAP
00
6A
2E
6E
1A
71
7E
AA
AA
50
ENDCHAR
STARTCHAR epd-52E4
ENCODING 21220
SWIDTH 640 0
DWIDTH 8 0
BBX 8 10 0 -1
BITMAP
50
F4
44
FF
F5
65
75
61
79
82
ENDCHAR
STARTCHAR epd-5316
ENCODING 21270
SWIDTH 640 0
DWIDTH 8 0
BBX 8 10 0 -1
BITMAP
20
28
4A
4E
CC
48
48
49
49
4E
ENDCHAR
STARTCHAR epd-5373
ENCODING 21363
SWIDTH 560 0
DWIDTH 7 0
BBX 7 10 0 -1
BITMAP
6E
1A
7A
1A
7A
4A
0A
66
D8
08
ENDCHAR
STARTCHAR epd-53CB
ENCODING 21451
SWIDTH 640 0
DWIDTH 8 0
BBX 8 10 0 -1
BITMAP
00
30
FF
20
3E
32
54
4C
9E
23
ENDCHAR
STARTCHAR epd-53E3
ENCODING 21475
SWIDTH 640 0
DWIDTH 8 0
BBX 8 10 0 -1
BITMAP
FF
81
81
81
81
81
81
81
FF
81
ENDCHAR
STARTCHAR epd-548C
ENCODING 21644
SWIDTH 640 0
DWIDTH 8 0
BBX 8 10 0 -1
BITMAP
30
67
29
F9
29
61
69
AD
2F
20
ENDCHAR
STARTCHAR epd-56FD
ENCODING 22269
SWIDTH 640 0
DWIDTH 8 0
BBX 8 10 0 -1
BITMAP
FF
81
BD
91
BD
81
9D
81
FF
C3
ENDCHAR
STARTCHAR epd-5927
ENCODING 22823
SWIDTH 640 0
DWIDTH 8 0
BBX 8 10 0 -1
BITMAP
00
00
10
FF
18
18
14
24
42
81
ENDCHAR
STARTCHAR epd-5929
ENCODING 22825
SWIDTH 640 0
DWIDTH 8 0
BBX 8 10 0 -1
BITMAP
FF
18
00
18
7E
18
18
24
66
83
ENDCHAR
STARTCHAR epd-5B89
ENCODING 23433
SWIDTH 640 0
DWIDTH 8 0
BBX 8 10 0 -1
BITMAP
00
FF
81
10
FF
24
64
18
1E
62
ENDCHAR
STARTCHAR epd-5C71
ENCODING 23665
SWIDTH 640 0
DWIDTH 8 0
BBX 8 10 0 -1
BITMAP
00
10
10
91
91
91
91
91
FF
81
ENDCHAR
STARTCHAR epd-5EFA
ENCODING 24314
SWIDTH 640 0
DWIDTH 8 0
BBX 8 10 0 -1
BITMAP
0C
5E
1F
4E
6E
0C
4C
4C
68
9E
ENDCHAR
STARTCHAR epd-5F15
ENCODING 24341
SWIDTH 640 0
DWIDTH 8 0
BBX 8 10 0 -1
BITMAP
71
19
19
71
81
F1
19
11
11
71
ENDCHAR
STARTCHAR epd-5FF5
ENCODING 24565
SWIDTH 640 0
DWIDTH 8 0
BBX 8 10 0 -1
BITMAP
18
3C
66
C1
3C
04
18
62
25
1C
ENDCHAR
STARTCHAR epd-611F
ENCODING 24863
SWIDTH 640 0
DWIDTH 8 0
BBX 8 10 0 -1
BITMAP
02
7F
48
76
74
FD
9B
02
63
9C
ENDCHAR
STARTCHAR epd-61B2
ENCODING 25010
SWIDTH 640 0
DWIDTH 8 0
BBX 8 10 0 -1
BITMAP
18
FF
3C
18
7E
7E
7E
18
62
9D
ENDCHAR
STARTCHAR epd-6210
ENCODING 25104
SWIDTH 640 0
DWIDTH 8 0
BBX 8 10 0 -1
BITMAP
00
0A
7F
48
72
56
54
74
8F
82
ENDCHAR
STARTCHAR epd-632F
ENCODING 25391
SWIDTH 640 0
DWIDTH 8 0
BBX 8 10 0 -1
BITMAP
40
50
F0
50
5E
FE
52
52
6E
C9
ENDCHAR
STARTCHAR epd-656C
ENCODING 25964
SWIDTH 640 0
DWIDTH 8 0
BBX 8 10 0 -1
BITMAP
04
F4
47
7A
DA
D6
16
56
1E
39
ENDCHAR
STARTCHAR epd-6587
ENCODING 25991
SWIDTH 640 0
DWIDTH 8 0
BBX 8 10 0 -1
BITMAP
00
18
FF
24
24
2C
18
18
66
C3
ENDCHAR
STARTCHAR epd-65E5
ENCODING 26085
SWIDTH 640 0
DWIDTH 8 0
BBX 8 10 0 -1
BITMAP
FF
83
81
81
FF
81
81
81
FF
83
ENDCHAR
STARTCHAR epd-6625
ENCODING 26149
SWIDTH 640 0
DWIDTH 8 0
BBX 8 10 0 -1
BITMAP
10
7E
18
3C
FF
36
67
3C
24
3C
ENDCHAR
STARTCHAR epd-662D
ENCODING 26157
SWIDTH 640 0
DWIDTH 8 0
BBX 8 10 0 -1
BITMAP
DF
A9
A9
FB
A2
AF
B1
D1
1F
11
ENDCHAR
STARTCHAR epd-66FF
ENCODING 26367
SWIDTH 640 0
DWIDTH 8 0
BBX 8 10 0 -1
BITMAP
24
66
64
66
4A
FE
46
7E
46
7E
ENDCHAR
STARTCHAR epd-6B63
ENCODING 27491
SWIDTH 560 0
DWIDTH 7 0
BBX 7 10 0 -1
BITMAP
FE
10
10
10
5C
50
50
50
50
FE
ENDCHAR
STARTCHAR epd-6BBF
ENCODING 27583
SWIDTH 560 0
DWIDTH 7 0
BBX 7 10 0 -1
BITMAP
7C
10
62
52
7C
4E
F4
84
DC
12
ENDCHAR
STARTCHAR epd-6C11
ENCODING 27665
SWIDTH 640 0
DWIDTH 8 0
BBX 8 10 0 -1
BITMAP
7E
42
42
7E
48
7F
48
44
75
C2
ENDCHAR
STARTCHAR epd-6CD5
ENCODING 27861
SWIDTH 640 0
DWIDTH 8 0
BBX 8 10 0 -1
BITMAP
40
4C
1E
80
4E
18
08
52
DF
01
ENDCHAR
STARTCHAR epd-6D77
ENCODING 28023
SWIDTH 640 0
DWIDTH 8 0
BBX 8 10 0 -1
BITMAP
50
5E
10
9E
10
3F
40
5F
82
06
ENDCHAR
STARTCHAR epd-6EC5
ENCODING 28357
SWIDTH 640 0
DWIDTH 8 0
BBX 8 10 0 -1
BITMAP
00
47
3E
9C
0A
3E
7A
4E
E7
00
ENDCHAR
STARTCHAR epd-751F
ENCODING 29983
SWIDTH 640 0
DWIDTH 8 0
BBX 8 10 0 -1
BITMAP
00
48
7E
D8
00
7E
18
00
18
FF
ENDCHAR
STARTCHAR epd-7687
ENCODING 30343
SWIDTH 640 0
DWIDTH 8 0
BBX 8 10 0 -1
BITMAP
10
7E
42
42
7E
00
5A
3E
18
FF
ENDCHAR
STARTCHAR epd-793C
ENCODING 31036
SWIDTH 560 0
DWIDTH 7 0
BBX 7 10 0 -1
BITMAP
00
08
60
20
00
60
C0
02
0A
0C
ENDCHAR
STARTCHAR epd-79CB
ENCODING 31179
SWIDTH 640 0
DWIDTH 8 0
BBX 8 10 0 -1
BITMAP
24
64
04
F9
66
64
C4
8E
0A
11
ENDCHAR
STARTCHAR epd-8001
ENCODING 32769
SWIDTH 640 0
DWIDTH 8 0
BBX 8 10 0 -1
BITMAP
10
3A
16
14
FF
10
64
90
21
1E
ENDCHAR
STARTCHAR epd-80B2
ENCODING 32946
SWIDTH 640 0
DWIDTH 8 0
BBX 8 10 0 -1
BITMAP
00
FF
26
7E
00
7E
66
66
62
46
ENDCHAR
STARTCHAR epd-884C
ENCODING 34892
SWIDTH 640 0
DWIDTH 8 0
BBX 8 10 0 -1
BITMAP
20
4F
80
20
4F
C2
42
42
42
44
ENDCHAR
STARTCHAR epd-8A18
ENCODING 35352
SWIDTH 640 0
DWIDTH 8 0
BBX 8 10 0 -1
BITMAP
6E
62
00
40
6E
08
68
A8
A9
EF
ENDCHAR
STARTCHAR epd-8A95
ENCODING 35477
SWIDTH 640 0
DWIDTH 8 0
BBX 8 10 0 -1
BITMAP
42
12
42
16
5E
0E
56
1F
F8
06
ENDCHAR
STARTCHAR epd-8B1D
ENCODING 35613
SWIDTH 640 0
DWIDTH 8 0
BBX 8 10 0 -1
BITMAP
00
59
9B
1F
59
1E
7A
99
E1
8A
ENDCHAR
STARTCHAR epd-8CA0
ENCODING 36000
SWIDTH 640 0
DWIDTH 8 0
BBX 8 10 0 -1
BITMAP
20
38
4C
42
66
42
42
7E
24
C2
ENDCHAR
STARTCHAR epd-8D64
ENCODING 36196
SWIDTH 640 0
DWIDTH 8 0
BBX 8 10 0 -1
BITMAP
00
7E
18
18
3C
00
42
A1
28
48
ENDCHAR
ENDFONT
